<?xml version="1.0" encoding="UTF-8"?>
<svg id="Layer_1" xmlns="http://www.w3.org/2000/svg" version="1.1" viewBox="0 0 612 792">
  <!-- Generator: Adobe Illustrator 29.8.1, SVG Export Plug-In . SVG Version: 2.1.1 Build 2)  -->
  <defs>
    <style>
      .st0 {
        fill: #ed1065;
      }
    </style>
  </defs>
  <g id="_x34_dqCUs.tif">
    <g>
      <path class="st0" d="M277.21,398.07h9.67c3.75,0,9.07,4.97,10.58,8.31,1.93,4.27,2.04,20.88.52,25.27-1.35,3.92-6.79,9.59-11.1,9.59h-9.67v27.22c0,2.74-4.31,5.59-6.97,5.66-2.84.07-7.42-2.7-7.42-5.66v-27.22h-9.67c-3.75,0-9.07-4.97-10.58-8.31-1.93-4.27-2.04-20.88-.52-25.27,1.35-3.92,6.79-9.59,11.1-9.59h9.67v-73.53c0-2.74,4.31-5.59,6.97-5.66,2.84-.07,7.42,2.7,7.42,5.66v73.53ZM284.41,412.46h-28.79v14.39h28.79v-14.39Z"/>
      <path class="st0" d="M349.19,340.51h9.67c3.75,0,9.07,4.97,10.58,8.31,1.93,4.27,2.04,20.88.52,25.27-1.35,3.92-6.79,9.59-11.1,9.59h-9.67v84.78c0,2.74-4.31,5.59-6.97,5.66-2.84.07-7.42-2.7-7.42-5.66v-84.78h-9.67c-3.75,0-9.07-4.97-10.58-8.31-1.93-4.27-2.04-20.88-.52-25.27,1.35-3.92,6.79-9.59,11.1-9.59h9.67v-15.96c0-2.74,4.31-5.59,6.97-5.66,2.84-.07,7.42,2.7,7.42,5.66v15.96ZM356.39,354.9h-28.79v14.39h28.79v-14.39Z"/>
    </g>
  </g>
</svg>